<?xml version="1.0" standalone="yes"?>
<svg xmlns="http://www.w3.org/2000/svg" width="24" height="24">
<path style="fill:#010101; stroke:none;" d="M0 3L3 0L0 3z"/>
<path style="fill:#ffffff; stroke:none;" d="M3.14815 1.02778C-1.44369 3.74659 -1.62952 17.845 1.6034 21.6821C4.64047 25.2868 16.9918 25.2577 20.8519 22.9722C25.4437 20.2534 25.6295 6.15505 22.3966 2.3179C19.3595 -1.28681 7.00818 -1.25773 3.14815 1.02778z"/>
<path style="fill:#010101; stroke:none;" d="M21 0L24 3L21 0M4.60339 4.02778C-5.02372 11.6526 9.05188 28.1654 19.3966 19.9722C29.0237 12.3474 14.9481 -4.1654 4.60339 4.02778z"/>
<path style="fill:#ffffff; stroke:none;" d="M17 7C10.864 4.54222 0.637519 9.60203 7.51775 16.4823C14.398 23.3625 19.4578 13.136 17 7L20 4L17 7z"/>
<path style="fill:#010101; stroke:none;" d="M12.0355 9.34568C8.95265 9.40371 8.88162 14.3693 12.0748 14.3642C15.4772 14.3587 15.3007 9.28421 12.0355 9.34568M0 21L3 24L0 21M23 21L21 24C23.2508 23.5268 24.1178 23.1397 23 21z"/>
</svg>
