<?xml version="1.0" standalone="yes"?>
<svg xmlns="http://www.w3.org/2000/svg" width="24" height="24">
<path style="fill:#010101; stroke:none;" d="M0 0L0 19L6 18L6 17C1.29071 13.1709 1.01593 8.77419 1 3C9.2278 7.8791 8.43532 3.93017 16.0432 2.40278C19.491 1.71059 21.7033 3.14909 24 0L0 0z"/>
<path style="fill:#ffffff; stroke:none;" d="M1 3C1.00369 8.57336 0.545081 14.0637 6 17L6 18L0 19L0 20C14.101 25.9501 22.0339 14.9009 24 2C14.531 2.56124 9.77394 6.60488 1 3z"/>
<path style="fill:#010101; stroke:none;" d="M23 3L24 4L23 3M23 6C18.6161 17.4296 12.8683 24.0778 0 20L0 24L24 24L23 6z"/>
</svg>
