<?xml version="1.0" standalone="yes"?>
<svg xmlns="http://www.w3.org/2000/svg" width="24" height="24">
<path style="fill:#010101; stroke:none;" d="M0 0L0 24L15 24L15 23C2.10777 21.0105 0.687806 8.65231 7 0L0 0z"/>
<path style="fill:#ffffff; stroke:none;" d="M18 23L16 21C19.0074 17.0443 23.0361 11.5379 21.6674 6.18441C19.9879 -0.385063 9.80287 -1.45746 5.14815 2.14815C-4.72165 9.79343 8.34357 24.5998 18 23z"/>
<path style="fill:#010101; stroke:none;" d="M16 0L16 1C24.2 6.78847 21.4305 12.8571 16 20L16 21L17 24L24 24L24 0L16 0M8 3L8 4L15 3L8 3M6 5L6 8L7 8L6 5M4 6L5 7L4 6M14 6L14 9L17 8L17 7L14 6M19 6L18 11L19 11L19 6M4 10L5 11L4 10M15 11L14 15L15 15L15 11M7 16L9 18L9 16L7 16M11 20L12 21L11 20z"/>
</svg>
