<?xml version="1.0" standalone="yes"?>
<svg xmlns="http://www.w3.org/2000/svg" width="18" height="18">
<path style="fill:#010101; stroke:none;" d="M0 0C0 4.59845 -2.30198 16.8639 3 18L3 2L9 5L14 0L0 0z"/>
<path style="fill:#ffffff; stroke:none;" d="M10 5L3 2L3 18L8 14C14.8426 18.7172 15.5637 13.2776 12 8L18 1C14.0251 0.43298 12.3909 1.86639 10 5z"/>
<path style="fill:#010101; stroke:none;" d="M17 0L18 1L17 0z"/>
<path style="fill:#eeeeee; stroke:none;" d="M7 2L8 3L7 2z"/>
<path style="fill:#f5f5f5; stroke:none;" d="M17 2L18 3L17 2z"/>
<path style="fill:#010101; stroke:none;" d="M17 3C13.6031 8.47912 16.1148 17.8793 8 14L6 18L18 18L17 3z"/>
<path style="fill:#eeeeee; stroke:none;" d="M12 8L13 9L12 8z"/>
<path style="fill:#d5d5d5; stroke:none;" d="M13 10L14 11L13 10z"/>
<path style="fill:#eeeeee; stroke:none;" d="M2 16L3 17L2 16z"/>
</svg>
