<?xml version="1.0" standalone="yes"?>
<svg xmlns="http://www.w3.org/2000/svg" width="51" height="51">
<path style="fill:#0D0E09; stroke:none;" d="M0 0L0 18L1 18C3.91494 10.1587 9.92449 3.57864 18 1L0 0z"/>
<path style="fill:#fff; stroke:none;" d="M18 0.53241C-14.5189 8.2795 0.469242 58.2175 33 50.4676C65.519 42.7205 50.5307 -7.21749 18 0.53241z"/>
<path style="fill:#0D0E09; stroke:none;" d="M33 0L33 1C40.8413 3.91494 47.4214 9.92449 50 18L51 18L51 0L33 0M7 12C12.0627 12 18.7107 10.8711 22.8519 14.4336C27.8696 18.7503 27.8611 33.9237 22.7716 38.196C18.864 41.4762 13.7622 40.9995 9 41C17.0674 51.2732 33.799 50.8908 42 41C37.9258 40.9973 33.462 41.4172 30.1481 38.5664C25.5884 34.6437 24.8496 18.823 29.3179 14.5725C33.1844 10.8945 39.1976 12.6854 44 12C34.9127 -0.597206 16.1787 -0.433441 7 12M3 19L4 35L5 35L5 19L3 19M13 19L13 33C19.9989 31.7847 19.9989 20.2153 13 19M34 19L35 33L39 33L39 30L46 30L46 35L47 35L48 19L46 19L46 23L39 23L39 19L34 19M0 33L0 51L18 51L18 50C9.22069 46.7363 5.09526 40.3387 0 33M50 33C47.0851 40.8413 41.0755 47.4214 33 50L33 51L51 51L50 33z"/>
</svg>
