<?xml version="1.0" standalone="yes"?>
<svg xmlns="http://www.w3.org/2000/svg" width="104" height="60">
<path style="fill:#010101; stroke:none;" d="M0 0L0 1C7.50082 2.55232 21.8724 5.2493 27.4367 10.7022C33.9038 17.0397 33.4064 26.5138 43 31L45 17L46 17C49.7921 24.0684 53.2824 21.9516 58 17L59 31C69.0047 26.3345 68.6093 17.0226 75.314 10.419C80.6335 5.17979 93.8243 2.66007 101 1L70 0L0 0z"/>
<path style="fill:#ffffff; stroke:none;" d="M59 31L58 17C52.6716 20.9863 50.7308 22.9394 46 17L45 17L43 31C34.9826 25.3368 33.8822 17.3644 28.0656 10.7022C23.203 5.13269 7.13034 1.96095 0 1C5.28035 12.3905 16.3743 19.3401 17 33C34.0851 36.9545 39.7028 49.8433 52 60C56.3215 51.8551 62.0523 44.4032 70 39.4676C74.1253 36.9057 80.9343 35.6924 84.2616 32.2731C87.2573 29.1946 87.6957 22.827 89.8789 19C93.8127 12.1043 99.6412 6.58948 104 0C96.5691 1.0974 79.6448 4.67104 74.588 10.419C68.5602 17.2705 67.3416 25.1241 59 31z"/>
<path style="fill:#010101; stroke:none;" d="M103 1C98.0883 6.6265 92.867 12.3774 89.3241 19C87.2333 22.9082 86.9079 29.3145 83.5671 32.2731C71.9926 42.5237 58.3011 43.0196 52 60L104 60L104 20L103 1M0 3L0 60L51 60C43.8083 47.0951 32.195 35.244 17 33C16.7568 21.5841 9.149 9.58126 0 3z"/>
</svg>
