<?xml version="1.0" standalone="yes"?>
<svg xmlns="http://www.w3.org/2000/svg" width="104" height="60">
<path style="fill:#010101; stroke:none;" d="M0 0L0 57C9.21311 50.3734 16.755 38.5019 17 27C32.2182 24.7206 43.8165 12.9029 51 0L0 0z"/>
<path style="fill:#ffffff; stroke:none;" d="M51 0C41.6221 12.2004 32.7466 23.2684 17 27C16.3709 40.7346 5.2941 47.5799 0 59C7.22787 58.0259 23.1199 54.9626 28.0656 49.2978C33.8822 42.6356 34.9826 34.6632 43 29L45 43L46 43C50.7308 37.0606 52.6716 39.0137 58 43L59 29C67.3416 34.8759 68.5602 42.7295 74.588 49.581C79.5641 55.2373 96.6543 58.9152 104 60L89.8789 41L84.2616 27.7269L67 18.4715L51 0z"/>
<path style="fill:#010101; stroke:none;" d="M52 0C55.7011 8.84282 61.7613 16.159 70 21.1736C74.1103 23.6754 81.1619 24.7906 84.2616 28.4298C86.8003 31.4104 87.0543 36.4861 88.8102 40C92.3247 47.0336 97.8961 54.0777 104 59L104 0L52 0M0 59L0 60L101 60L101 59L75.314 49.581L59 29L58 43C53.2824 38.0484 49.7921 35.9315 46 43L45 43L43 29C33.4064 33.4862 33.9038 42.9603 27.4367 49.2978C21.7847 54.8366 7.59588 57.428 0 59z"/>
</svg>
