<?xml version="1.0" standalone="yes"?>
<svg xmlns="http://www.w3.org/2000/svg" width="44" height="49">
<path style="fill:#010101; stroke:none;" d="M0 0L0 22L1 22L21 0L0 0z"/>
<path style="fill:#ffffff; stroke:none;" d="M16 35C13.9758 32.1232 8.37891 27.877 9.34568 24C10.9899 17.406 27.8086 10.288 25.6543 3.15278C23.7089 -3.29081 15.8851 5.12879 14 7.00077C9.65679 11.3138 2.97255 16.1361 0.742284 22C-3.33528 32.7209 7.39079 37.6569 16 35z"/>
<path style="fill:#010101; stroke:none;" d="M24 0C28.5545 11.507 8.63714 14.6362 8.6358 25C8.63529 28.9555 13.4793 32.4703 16 35C9.33478 36.3816 5.24357 35.6978 1 30L0 30L0 49L19 49C14.3235 37.1848 35.3628 33.6787 35.3642 23C35.3647 19.0445 30.5207 15.5297 28 13C34.6951 10.6161 38.8188 12.2405 43 18L44 18L44 0L24 0z"/>
<path style="fill:#ffffff; stroke:none;" d="M28 13C30.0242 15.8768 35.6211 20.123 34.6543 24C32.9472 30.8459 15.1212 38.4795 17.3457 45.8472C19.2911 52.2908 27.1149 43.8712 29 41.9992C33.7151 37.3169 41.7763 31.6701 43.5656 25C46.2374 15.0403 36.3275 9.01548 28 13M19.6034 21.0316C15.8735 23.9064 20.5475 29.8216 24.2577 26.9568C28.0949 23.9939 23.5108 18.0201 19.6034 21.0316z"/>
<path style="fill:#010101; stroke:none;" d="M43 26L22 49L44 49L43 26z"/>
</svg>
